<svg width="274" height="89" viewBox="0 0 274 89" fill="none" xmlns="http://www.w3.org/2000/svg">
<path d="M217 7H267L217 57" stroke="url(#paint0_linear_2010_2)" stroke-width="12.5" stroke-linecap="round" stroke-linejoin="round"/>
<path d="M217 82V32L267 82" stroke="url(#paint1_linear_2010_2)" stroke-width="12.5" stroke-linecap="round" stroke-linejoin="round"/>
<path d="M147 57V7H197" stroke="url(#paint2_linear_2010_2)" stroke-width="12.5" stroke-linecap="round" stroke-linejoin="round"/>
<path d="M147 32H197L147 82" stroke="url(#paint3_linear_2010_2)" stroke-width="12.5" stroke-linecap="round" stroke-linejoin="round"/>
<path d="M77 7V57L127 7" stroke="url(#paint4_linear_2010_2)" stroke-width="12.5" stroke-linecap="round" stroke-linejoin="round"/>
<path d="M77 82V32L127 82" stroke="url(#paint5_linear_2010_2)" stroke-width="12.5" stroke-linecap="round" stroke-linejoin="round"/>
<path d="M57 82H7L57 32" stroke="url(#paint6_linear_2010_2)" stroke-width="12.5" stroke-linecap="round" stroke-linejoin="round"/>
<path d="M7 7H57L7 57" stroke="url(#paint7_linear_2010_2)" stroke-width="12.5" stroke-linecap="round" stroke-linejoin="round"/>
<defs>
<linearGradient id="paint0_linear_2010_2" x1="242" y1="7" x2="242" y2="57" gradientUnits="userSpaceOnUse">
<stop stop-color="#173DFF"/>
<stop offset="1" stop-color="#173DFF" stop-opacity="0.5"/>
</linearGradient>
<linearGradient id="paint1_linear_2010_2" x1="242" y1="32" x2="242" y2="82" gradientUnits="userSpaceOnUse">
<stop stop-color="#173DFF"/>
<stop offset="1" stop-color="#173DFF" stop-opacity="0.5"/>
</linearGradient>
<linearGradient id="paint2_linear_2010_2" x1="172" y1="7" x2="172" y2="57" gradientUnits="userSpaceOnUse">
<stop stop-color="#FDDA04"/>
<stop offset="1" stop-color="#FDDA04" stop-opacity="0.5"/>
</linearGradient>
<linearGradient id="paint3_linear_2010_2" x1="172" y1="32" x2="172" y2="82" gradientUnits="userSpaceOnUse">
<stop stop-color="#173DFF"/>
<stop offset="1" stop-color="#173DFF" stop-opacity="0.5"/>
</linearGradient>
<linearGradient id="paint4_linear_2010_2" x1="102" y1="7" x2="102" y2="57" gradientUnits="userSpaceOnUse">
<stop stop-color="#009900"/>
<stop offset="1" stop-color="#009900" stop-opacity="0.5"/>
</linearGradient>
<linearGradient id="paint5_linear_2010_2" x1="102" y1="32" x2="102" y2="82" gradientUnits="userSpaceOnUse">
<stop stop-color="#173DFF"/>
<stop offset="1" stop-color="#173DFF" stop-opacity="0.5"/>
</linearGradient>
<linearGradient id="paint6_linear_2010_2" x1="32" y1="32" x2="32" y2="82" gradientUnits="userSpaceOnUse">
<stop stop-color="#173DFF"/>
<stop offset="1" stop-color="#173DFF" stop-opacity="0.5"/>
</linearGradient>
<linearGradient id="paint7_linear_2010_2" x1="32" y1="7" x2="32" y2="57" gradientUnits="userSpaceOnUse">
<stop stop-color="#173DFF"/>
<stop offset="1" stop-color="#173DFF" stop-opacity="0.5"/>
</linearGradient>
</defs>
</svg>
